<?xml version="1.0" encoding="UTF-8"?><!DOCTYPE svg PUBLIC "-//W3C//DTD SVG 1.1//EN" "http://www.w3.org/Graphics/SVG/1.1/DTD/svg11.dtd"><svg xmlns="http://www.w3.org/2000/svg" xmlns:xlink="http://www.w3.org/1999/xlink"><symbol id="icon-phone-opacity"><path opacity=".2" d="M12.709 10.282L10.7 8.27c-.4-.4-1.062-.387-1.476.028L8.214 9.31a29.51 29.51 0 0 1-.2-.111C7.375 8.845 6.5 8.36 5.58 7.436c-.923-.924-1.408-1.802-1.763-2.442-.038-.068-.073-.134-.109-.196l.679-.68.334-.334c.414-.415.426-1.079.027-1.48L2.74.293c-.399-.4-1.061-.388-1.476.028L.7.89l.016.016a3.26 3.26 0 0 0-.467.824 3.424 3.424 0 0 0-.207.836c-.265 2.203.74 4.216 3.465 6.947 3.767 3.776 6.803 3.491 6.934 3.477a3.384 3.384 0 0 0 1.656-.676l.013.011.573-.563c.413-.415.425-1.079.027-1.48z" fill="#000"/></symbol><symbol id="icon-phone"><path d="M8.798 7.119l-1.39-1.394a.724.724 0 0 0-1.021.02l-.7.701-.139-.077c-.442-.245-1.047-.582-1.684-1.22-.639-.64-.975-1.248-1.22-1.692l-.076-.135.47-.47.23-.232a.727.727 0 0 0 .02-1.024L1.898.202a.723.723 0 0 0-1.022.02L.484.615l.01.01a2.272 2.272 0 0 0-.322.572 2.37 2.37 0 0 0-.144.578C-.155 3.3.54 4.694 2.427 6.585c2.608 2.614 4.71 2.417 4.8 2.407a2.345 2.345 0 0 0 1.147-.468l.009.008.397-.39a.728.728 0 0 0 .018-1.024z" fill="#007FC8"/></symbol><symbol id="icon-triangle"><path d="M5.915 4.786c.113.095.113.333 0 .428L.255 9.967C.14 10.062 0 9.943 0 9.753V.247c0-.19.141-.309.254-.214l5.661 4.753z" fill="#fff"/></symbol><symbol id="icon-user"><path opacity=".2" d="M10.7 10.722L8.206 9.528a.655.655 0 0 1-.38-.591v-.845a5.636 5.636 0 0 0 .958-1.687.99.99 0 0 0 .606-.905v-1a.974.974 0 0 0-.26-.656v-1.33c.014-.137.071-.956-.546-1.631C8.049.297 7.179 0 6 0 4.82 0 3.951.297 3.415.882c-.617.676-.56 1.495-.545 1.632v1.33a.974.974 0 0 0-.261.656v1a.98.98 0 0 0 .39.777c.24.907.74 1.59.914 1.81v.827a.657.657 0 0 1-.36.58L1.228 10.71C.47 11.106 0 11.864 0 12.69v.81C0 14.687 3.925 15 6 15s6-.313 6-1.5v-.76c0-.86-.498-1.633-1.3-2.018z" fill="#000"/></symbol></svg>