<svg width="9" height="9" fill="none" xmlns="http://www.w3.org/2000/svg"><path d="M8.798 7.119l-1.39-1.394a.724.724 0 0 0-1.021.02l-.7.701-.139-.077c-.442-.245-1.047-.582-1.684-1.22-.639-.64-.975-1.248-1.22-1.692l-.076-.135.47-.47.23-.232a.727.727 0 0 0 .02-1.024L1.898.202a.723.723 0 0 0-1.022.02L.484.615l.01.01a2.272 2.272 0 0 0-.322.572 2.37 2.37 0 0 0-.144.578C-.155 3.3.54 4.694 2.427 6.585c2.608 2.614 4.71 2.417 4.8 2.407a2.345 2.345 0 0 0 1.147-.468l.009.008.397-.39a.728.728 0 0 0 .018-1.024z" fill="#007FC8"/></svg>