<svg width="12" height="15" fill="none" xmlns="http://www.w3.org/2000/svg"><path opacity=".2" d="M10.7 10.722L8.206 9.528a.655.655 0 0 1-.38-.591v-.845a5.636 5.636 0 0 0 .958-1.687.99.99 0 0 0 .606-.905v-1a.974.974 0 0 0-.26-.656v-1.33c.014-.137.071-.956-.546-1.631C8.049.297 7.179 0 6 0 4.82 0 3.951.297 3.415.882c-.617.676-.56 1.495-.545 1.632v1.33a.974.974 0 0 0-.261.656v1a.98.98 0 0 0 .39.777c.24.907.74 1.59.914 1.81v.827a.657.657 0 0 1-.36.58L1.228 10.71C.47 11.106 0 11.864 0 12.69v.81C0 14.687 3.925 15 6 15s6-.313 6-1.5v-.76c0-.86-.498-1.633-1.3-2.018z" fill="#000"/></svg>