<?xml version="1.0" encoding="UTF-8"?><!DOCTYPE svg PUBLIC "-//W3C//DTD SVG 1.1//EN" "http://www.w3.org/Graphics/SVG/1.1/DTD/svg11.dtd"><svg xmlns="http://www.w3.org/2000/svg" xmlns:xlink="http://www.w3.org/1999/xlink"><symbol id="icon-phone"><circle cx="10.5" cy="10.5" r="10.5" fill="#fff"/><path d="M14.798 13.119l-1.39-1.394a.724.724 0 0 0-1.021.02l-.7.701-.139-.077c-.442-.245-1.047-.582-1.684-1.22-.639-.64-.975-1.248-1.22-1.692l-.076-.135.47-.47.23-.232a.727.727 0 0 0 .02-1.024l-1.39-1.394a.723.723 0 0 0-1.022.02l-.392.394.01.011a2.272 2.272 0 0 0-.322.57 2.37 2.37 0 0 0-.144.58c-.183 1.524.512 2.918 2.399 4.81 2.608 2.613 4.71 2.416 4.8 2.406a2.348 2.348 0 0 0 1.147-.468l.009.008.397-.39a.728.728 0 0 0 .018-1.024z" fill="#007FC8"/></symbol><symbol id="icon-triangle"><path d="M5.915 4.786c.113.095.113.333 0 .428L.255 9.967C.14 10.062 0 9.943 0 9.753V.247c0-.19.141-.309.254-.214l5.661 4.753z" fill="#fff"/></symbol></svg>